<svg width="30" height="32" viewBox="0 0 30 32" fill="none" xmlns="http://www.w3.org/2000/svg">
<path d="M29.9206 19.278C29.7403 18.7303 29.2679 18.3489 28.6571 18.2574C28.3691 18.2143 28.0392 18.2327 27.6489 18.3134C26.9685 18.4541 26.4637 18.5077 26.0953 18.5181C27.4858 16.164 28.6165 13.4794 29.2674 10.9524C30.3199 6.86626 29.7574 5.00477 29.1002 4.16278C27.3608 1.93412 24.8232 0.736862 21.7617 0.700228C20.1285 0.680203 18.6948 1.00355 17.9469 1.23607C17.2505 1.11286 16.5018 1.04407 15.7161 1.03135C14.2434 1.00779 12.9422 1.32972 11.8304 1.99137C11.2149 1.78264 10.2269 1.48839 9.08608 1.30062C6.40285 0.858896 4.24025 1.20309 2.65841 2.32366C0.742962 3.68041 -0.144986 6.0377 0.0192354 9.33004C0.0713916 10.3753 0.654508 13.5558 1.57265 16.572C2.10032 18.3057 2.66299 19.7454 3.24505 20.8515C4.07051 22.4199 4.95375 23.3435 5.94531 23.6752C6.50106 23.8608 7.51082 23.9909 8.57286 23.1039C8.70747 23.2674 8.88708 23.4298 9.12543 23.5807C9.42815 23.7722 9.79829 23.9286 10.168 24.0213C11.5002 24.3552 12.7481 24.2717 13.8127 23.8036C13.8193 23.9935 13.8243 24.1749 13.8285 24.3316C13.8356 24.5856 13.8426 24.8348 13.8519 25.0678C13.915 26.6431 14.0219 27.8681 14.3386 28.7251C14.356 28.7723 14.3793 28.8441 14.404 28.9203C14.562 29.4054 14.8262 30.2175 15.4984 30.8534C16.1944 31.5123 17.0363 31.7143 17.8073 31.7143C18.194 31.7143 18.563 31.6634 18.8866 31.5939C20.0402 31.3459 21.3503 30.9683 22.298 29.6151C23.1941 28.3358 23.6297 26.4091 23.7085 23.3732C23.7187 23.2873 23.7281 23.2053 23.7372 23.1272L23.756 22.9668L23.967 22.9854L24.0214 22.9891C25.1964 23.0428 26.633 22.7929 27.5153 22.3819C28.2125 22.0575 30.4466 20.8748 29.9206 19.278Z" fill="black"/>
<path d="M27.9117 19.5885C24.4182 20.3112 24.1779 19.1251 24.1779 19.1251C27.8665 13.6367 29.4085 6.67004 28.0779 4.96497C24.4476 0.313874 18.1636 2.51356 18.0587 2.57057L18.025 2.5767C17.3348 2.43299 16.5624 2.34747 15.6942 2.33322C14.1135 2.3073 12.9144 2.74879 12.0045 3.44072C12.0045 3.44072 0.794416 -1.19024 1.31586 9.26492C1.42675 11.4891 4.49504 26.0945 8.15468 21.683C9.4923 20.0698 10.7848 18.7059 10.7848 18.7059C11.4267 19.1335 12.1951 19.3516 13.0007 19.2733L13.0634 19.22C13.0439 19.4203 13.0528 19.6162 13.0884 19.8481C12.1456 20.9044 12.4227 21.0898 10.538 21.4789C8.6309 21.873 9.7512 22.5746 10.4827 22.7581C11.3695 22.9804 13.4209 23.2954 14.8071 21.3495L14.7519 21.5716C15.1212 21.8683 15.3806 23.5014 15.3371 24.9819C15.2936 26.4624 15.2646 27.4788 15.5556 28.2727C15.8468 29.0667 16.1368 30.853 18.6145 30.3207C20.6846 29.8758 21.7575 28.7229 21.9068 26.7998C22.0126 25.4327 22.2524 25.6349 22.2674 24.4125L22.4597 23.8339C22.6814 21.9807 22.4949 21.3827 23.7703 21.6608L24.0804 21.6882C25.019 21.7309 26.2477 21.5367 26.9689 21.2006C28.5216 20.4781 29.4425 19.2715 27.9114 19.5885H27.9117Z" fill="#336791"/>
<path d="M12.6607 10.2596C12.3458 10.2156 12.0607 10.2563 11.9165 10.3658C11.8354 10.4274 11.8103 10.4988 11.8035 10.5479C11.7854 10.6781 11.8763 10.822 11.9322 10.8962C12.0903 11.1064 12.3213 11.2508 12.5499 11.2826C12.583 11.2873 12.616 11.2894 12.6488 11.2894C13.03 11.2894 13.3766 10.9918 13.4072 10.7721C13.4454 10.4969 13.047 10.3135 12.6607 10.2597V10.2596ZM23.09 10.2683C23.06 10.0526 22.6772 9.99111 22.314 10.0418C21.9513 10.0924 21.5996 10.2566 21.629 10.4728C21.6524 10.6409 21.9552 10.9278 22.3134 10.9278C22.3438 10.9278 22.3743 10.9258 22.4051 10.9214C22.6442 10.8882 22.8197 10.7359 22.9031 10.6482C23.03 10.5143 23.1035 10.3652 23.09 10.2683Z" fill="white"/>
<path d="M29.0742 19.5064C28.941 19.1025 28.5122 18.9726 27.7999 19.12C25.6848 19.5578 24.9274 19.2546 24.6787 19.0709C26.3227 16.5595 27.6751 13.5238 28.4047 10.6914C28.7503 9.34972 28.9412 8.10369 28.9568 7.08807C28.9741 5.97339 28.7847 5.15425 28.3943 4.65386C26.8199 2.63663 24.5093 1.55458 21.7124 1.52489C19.7895 1.50322 18.1649 1.99666 17.85 2.13542C17.1867 1.97004 16.4637 1.8685 15.6766 1.85554C14.2331 1.8321 12.9853 2.17865 11.9523 2.88506C11.5036 2.71756 10.3439 2.31835 8.92573 2.08924C6.47391 1.69346 4.52556 1.99336 3.1352 2.98106C1.47618 4.15971 0.710281 6.26658 0.858644 9.243C0.908569 10.2444 1.47759 13.3249 2.37552 16.2751C3.5575 20.158 4.84238 22.3562 6.19421 22.8084C6.35245 22.8613 6.53487 22.8983 6.7361 22.8983C7.22924 22.8983 7.83385 22.6754 8.4629 21.9171C9.23015 20.9941 10.0238 20.0935 10.8429 19.2165C11.3744 19.5025 11.9582 19.6622 12.5553 19.6783C12.5565 19.6939 12.558 19.7096 12.5594 19.7251C12.4566 19.848 12.356 19.9727 12.2575 20.0991C11.8438 20.6258 11.7577 20.7355 10.4259 21.0104C10.0471 21.0888 9.04096 21.2967 9.02616 22.004C9.01019 22.7767 10.2155 23.1012 10.3529 23.1356C10.8314 23.2558 11.2925 23.315 11.7322 23.315C12.8015 23.315 13.7426 22.9626 14.4946 22.2807C14.4714 25.0354 14.586 27.7499 14.9158 28.5769C15.186 29.254 15.846 30.9086 17.9306 30.9085C18.2365 30.9085 18.5731 30.8728 18.9435 30.7932C21.1191 30.3255 22.064 29.3613 22.4294 27.2355C22.625 26.0993 22.9606 23.3864 23.1185 21.9312C23.4516 22.0354 23.8805 22.0831 24.3441 22.083C25.3112 22.083 26.427 21.877 27.1268 21.5513C27.9129 21.1852 29.3314 20.2869 29.0742 19.5064ZM23.8931 9.67295C23.8859 10.1025 23.8269 10.4926 23.7644 10.8997C23.6971 11.3375 23.6276 11.7902 23.6101 12.3397C23.5928 12.8745 23.6594 13.4305 23.7238 13.9682C23.854 15.0543 23.9875 16.1724 23.4705 17.2756C23.3847 17.123 23.3082 16.9653 23.2415 16.8034C23.1772 16.6472 23.0377 16.3963 22.8444 16.049C22.0927 14.6972 20.3325 11.5316 21.2336 10.2399C21.502 9.85541 22.1832 9.46009 23.8931 9.67295ZM21.8204 2.3948C24.3265 2.45028 26.3089 3.3904 27.7125 5.18888C28.7889 6.56836 27.6036 12.8453 24.1719 18.2604C24.1374 18.2164 24.1027 18.1725 24.0679 18.1288L24.0244 18.0744C24.9112 16.6058 24.7378 15.1528 24.5834 13.8646C24.52 13.336 24.4601 12.8367 24.4754 12.3676C24.4911 11.8705 24.5567 11.4441 24.6201 11.0318C24.698 10.5238 24.7773 9.99806 24.7554 9.37834C24.7717 9.31332 24.7783 9.23652 24.7697 9.14535C24.7139 8.55107 24.0373 6.7725 22.6582 5.16273C21.9038 4.28222 20.8037 3.29687 19.3017 2.63227C19.9477 2.49799 20.8312 2.37277 21.8204 2.3948ZM7.7972 21.362C7.10413 22.1976 6.62556 22.0374 6.46815 21.9849C5.44265 21.6419 4.25268 19.4683 3.20357 16.0217C2.29576 13.0394 1.76527 10.0405 1.72322 9.19953C1.59071 6.53998 2.23362 4.68649 3.63421 3.69042C5.91358 2.06957 9.66108 3.03972 11.1669 3.53175C11.1453 3.55319 11.1228 3.57321 11.1014 3.59501C8.63029 6.09742 8.68891 10.3729 8.69502 10.6343C8.69478 10.7351 8.70324 10.8779 8.71475 11.0742C8.75728 11.7934 8.83645 13.1317 8.625 14.6474C8.4286 16.0559 8.86159 17.4344 9.81274 18.4296C9.91035 18.5316 10.0129 18.6286 10.1202 18.7204C9.69679 19.175 8.77666 20.1805 7.7972 21.362ZM10.4378 17.829C9.67119 17.0268 9.32301 15.9111 9.48241 14.7675C9.7056 13.1665 9.62326 11.772 9.57897 11.0229C9.57275 10.918 9.56722 10.8261 9.56405 10.7537C9.92504 10.4327 11.5979 9.53395 12.7909 9.80805C13.3353 9.93303 13.667 10.3048 13.8049 10.9442C14.5187 14.2545 13.8994 15.6343 13.4018 16.7431C13.2992 16.9715 13.2023 17.1874 13.1196 17.4107L13.0555 17.5834C12.8931 18.02 12.7421 18.4259 12.6484 18.8113C11.8334 18.8089 11.0406 18.4598 10.4378 17.8289V17.829ZM10.5629 22.2934C10.3249 22.2338 10.1109 22.1303 9.9853 22.0444C10.0902 21.9949 10.2769 21.9275 10.6006 21.8606C12.1673 21.5373 12.4093 21.309 12.9377 20.6363C13.0588 20.482 13.1961 20.3072 13.3863 20.0942L13.3865 20.094C13.6697 19.7759 13.7993 19.8299 14.0342 19.9276C14.2246 20.0065 14.4101 20.2459 14.4853 20.5093C14.5209 20.6337 14.5608 20.8697 14.4301 21.0535C13.3264 22.6032 11.718 22.5833 10.5629 22.2934ZM18.7621 29.9444C16.8455 30.3562 16.1669 29.3755 15.7197 28.2545C15.4311 27.5308 15.2892 24.2672 15.3898 20.663C15.3911 20.6151 15.3843 20.5688 15.3711 20.5252C15.3594 20.4391 15.3415 20.354 15.3176 20.2705C15.1679 19.7461 14.8032 19.3074 14.3656 19.1256C14.1918 19.0534 13.8727 18.9208 13.4893 19.0192C13.571 18.6814 13.7128 18.2998 13.8666 17.8867L13.9311 17.713C14.0037 17.5171 14.0948 17.3141 14.1912 17.0993C14.7119 15.9392 15.4251 14.3503 14.6511 10.7608C14.3611 9.41627 13.393 8.75969 11.9253 8.91223C11.0455 9.00352 10.2404 9.35949 9.83893 9.56363C9.75259 9.60745 9.67365 9.64986 9.59988 9.69108C9.71195 8.33645 10.1353 5.80482 11.719 4.20306C12.7162 3.19474 14.0442 2.69671 15.6622 2.72357C18.8503 2.77587 20.8948 4.4165 22.0486 5.78374C23.0428 6.9618 23.5812 8.14857 23.796 8.78867C22.1802 8.62387 21.0813 8.94368 20.5243 9.74233C19.3124 11.4796 21.1873 14.8513 22.0884 16.4718C22.2537 16.7687 22.3963 17.0254 22.4411 17.1345C22.7346 17.8476 23.1145 18.3237 23.3918 18.6712C23.4769 18.7777 23.5593 18.881 23.6221 18.9713C23.1327 19.1127 22.2537 19.4396 22.3338 21.0735C22.2692 21.8934 21.8097 25.7318 21.5763 27.088C21.2682 28.8796 20.6107 29.5469 18.7621 29.9445V29.9444ZM26.7623 20.764C26.2618 20.9968 25.4244 21.1715 24.6289 21.2091C23.7502 21.2503 23.3029 21.1104 23.1976 21.0243C23.1483 20.0061 23.5262 19.8997 23.9262 19.7871C23.989 19.7694 24.0504 19.7521 24.1096 19.7314C24.1463 19.7614 24.1866 19.7912 24.2308 19.8204C24.937 20.2878 26.1966 20.3383 27.975 19.9702L27.9945 19.9663C27.7546 20.1911 27.3442 20.4929 26.7623 20.764Z" fill="white"/>
</svg>
